<?xml version="1.0" encoding="UTF-8" standalone="no"?>
<!-- Created with Inkscape (http://www.inkscape.org/) -->

<svg
   width="207.91393mm"
   height="68.449974mm"
   viewBox="0 0 207.91393 68.449974"
   version="1.1"
   id="svg1"
   inkscape:version="1.3.2 (1:1.3.2+202311252150+091e20ef0f)"
   sodipodi:docname="Noobar.svg"
   xml:space="preserve"
   inkscape:export-filename="Noobar white.svg"
   inkscape:export-xdpi="96"
   inkscape:export-ydpi="96"
   xmlns:inkscape="http://www.inkscape.org/namespaces/inkscape"
   xmlns:sodipodi="http://sodipodi.sourceforge.net/DTD/sodipodi-0.dtd"
   xmlns="http://www.w3.org/2000/svg"
   xmlns:svg="http://www.w3.org/2000/svg"><sodipodi:namedview
     id="namedview1"
     pagecolor="#ffffff"
     bordercolor="#000000"
     borderopacity="0.25"
     inkscape:showpageshadow="2"
     inkscape:pageopacity="0.0"
     inkscape:pagecheckerboard="0"
     inkscape:deskcolor="#d1d1d1"
     inkscape:document-units="mm"
     inkscape:zoom="1.1022029"
     inkscape:cx="175.55751"
     inkscape:cy="595.62536"
     inkscape:window-width="1366"
     inkscape:window-height="740"
     inkscape:window-x="0"
     inkscape:window-y="0"
     inkscape:window-maximized="1"
     inkscape:current-layer="layer1" /><defs
     id="defs1"><rect
       x="297.89566"
       y="621.84943"
       width="565.87567"
       height="221.03719"
       id="rect88" /></defs><g
     inkscape:label="Layer 1"
     inkscape:groupmode="layer"
     id="layer1"
     transform="translate(-9.0164187,-162.9629)"><path
       d="m 30.503996,162.96498 c -0.238745,0.005 -0.471705,0.022 -0.697632,0.0506 -2.963611,0.37526 -5.958984,1.43214 -8.974646,2.92851 -2.422384,1.20197 -5.647276,4.11057 -6.993888,6.45438 -3.688718,6.42029 -4.8208273,13.95013 -4.8214113,22.34282 0.01974,16.79551 8.5894373,32.72477 25.1726233,36.60914 1.487632,0.13612 1.882526,-0.7764 0.943612,-1.9389 -4.313275,-5.3405 -6.526621,-10.47427 -7.647595,-14.59705 -1.340832,-4.93137 -0.394213,-5.03475 1.463476,-0.25528 2.110847,5.43079 4.869709,9.12204 7.890991,12.08712 2.452146,2.40651 7.349958,4.84617 10.931116,4.76457 0.238749,-0.005 0.471703,-0.0221 0.697632,-0.0507 2.963602,-0.37526 5.958477,-1.43214 8.974129,-2.9285 2.422376,-1.20197 5.647794,-4.1106 6.994405,-6.45439 3.688635,-6.42014 4.842006,-13.84198 4.778003,-22.46374 0.0058,-16.80896 -8.549431,-32.60465 -25.129215,-36.48821 -1.48764,-0.13612 -1.882528,0.77638 -0.943612,1.9389 4.313288,5.34051 6.526619,10.47425 7.647595,14.59704 1.340831,4.93137 0.394222,5.03478 -1.463476,0.25528 -2.110849,-5.43079 -4.869692,-9.12203 -7.890991,-12.08711 -2.452152,-2.40653 -7.349944,-4.84614 -10.931116,-4.76457 z"
       style="fill:#f9f9f9;fill-opacity:1;stroke-width:0.465;stroke-linecap:round;paint-order:markers stroke fill"
       id="path114" /><path
       d="m 216.42237,197.38252 c -2.8956,0 -4.31827,0.81262 -6.09627,3.40341 v -2.74298 h -6.19755 v 28.14298 h 6.75617 v -15.64659 c -0.1524,-4.16559 1.98163,-6.50197 6.04563,-6.65437 v -6.50245 z"
       style="font-weight:600;font-size:192px;font-family:'URW Gothic';-inkscape-font-specification:'URW Gothic, Semi-Bold';white-space:pre;shape-inside:url(#rect88);fill:#f9f9f9;fill-opacity:1;stroke-width:369.033;stroke-linecap:round;stroke-linejoin:round"
       id="path115" /><path
       d="m 183.70705,197.38252 c -8.33119,0 -14.32574,6.24801 -14.32574,14.83321 0,8.48359 5.94371,14.63063 14.1733,14.63063 3.96239,0 6.65483,-1.21929 9.34723,-4.31809 v 3.65766 h 6.19755 v -28.14298 h -6.19755 v 3.75894 c -2.3368,-3.0988 -5.13079,-4.41937 -9.19479,-4.41937 z m 0.71107,6.19756 c 4.826,0 8.28063,3.60665 8.28063,8.73745 0,2.032 -0.81272,4.36898 -2.03192,5.79138 -1.37159,1.67639 -3.55611,2.53989 -6.14691,2.53989 -4.92759,0 -8.33127,-3.35303 -8.33127,-8.28063 0,-5.13079 3.40348,-8.78809 8.22947,-8.78809 z"
       style="font-weight:600;font-size:192px;font-family:'URW Gothic';-inkscape-font-specification:'URW Gothic, Semi-Bold';white-space:pre;shape-inside:url(#rect88);fill:#f9f9f9;fill-opacity:1;stroke-width:369.033;stroke-linecap:round;stroke-linejoin:round"
       id="path116" /><path
       d="m 137.07269,188.64455 v 37.54138 h 6.19755 v -3.6065 c 2.8956,3.0988 5.58782,4.26693 9.75341,4.26693 4.3688,0 7.82356,-1.62535 10.41436,-4.92735 2.13359,-2.7432 3.3016,-6.24846 3.3016,-10.00766 0,-8.53439 -6.04478,-14.88436 -14.17278,-14.88436 -3.70839,0 -6.09637,1.0157 -8.73796,3.6065 v -11.98894 z m 14.52883,14.57999 c 4.82599,0 8.33127,3.65746 8.33127,8.73745 0,5.1816 -3.35283,8.68681 -8.17883,8.68681 -4.92759,0 -8.33127,-3.60665 -8.33127,-8.73745 0,-5.07999 3.40363,-8.68681 8.17883,-8.68681 z"
       style="font-weight:600;font-size:192px;font-family:'URW Gothic';-inkscape-font-specification:'URW Gothic, Semi-Bold';white-space:pre;shape-inside:url(#rect88);fill:#f9f9f9;fill-opacity:1;stroke-width:369.033;stroke-linecap:round;stroke-linejoin:round"
       id="path117" /><path
       d="m 118.22578,197.38252 c -8.17879,0 -14.88436,6.65473 -14.88436,14.73192 0,8.12799 6.70541,14.73192 14.935,14.73192 8.17879,0 14.98617,-6.60404 14.98617,-14.52883 0,-8.38199 -6.55322,-14.93501 -15.03681,-14.93501 z m 0.0506,6.19756 c 4.5212,0 8.17883,3.80996 8.17883,8.53436 0,4.7244 -3.65727,8.53436 -8.12767,8.53436 -4.57199,0 -8.17883,-3.81017 -8.17883,-8.63616 0,-4.6228 3.65728,-8.43256 8.12767,-8.43256 z"
       style="font-weight:600;font-size:192px;font-family:'URW Gothic';-inkscape-font-specification:'URW Gothic, Semi-Bold';white-space:pre;shape-inside:url(#rect88);fill:#f9f9f9;fill-opacity:1;stroke-width:369.033;stroke-linecap:round;stroke-linejoin:round"
       id="path118" /><path
       d="m 85.714063,197.38252 c -8.178792,0 -14.884363,6.65473 -14.884363,14.73192 0,8.12799 6.705414,14.73192 14.935005,14.73192 8.178792,0 14.986175,-6.60404 14.986175,-14.52883 0,-8.38199 -6.553226,-14.93501 -15.036817,-14.93501 z m 0.05064,6.19756 c 4.521196,0 8.178829,3.80996 8.178829,8.53436 0,4.7244 -3.65779,8.53436 -8.128186,8.53436 -4.571995,0 -8.178829,-3.81017 -8.178829,-8.63616 0,-4.6228 3.657791,-8.43256 8.128186,-8.43256 z"
       style="font-weight:600;font-size:192px;font-family:'URW Gothic';-inkscape-font-specification:'URW Gothic, Semi-Bold';white-space:pre;shape-inside:url(#rect88);fill:#f9f9f9;fill-opacity:1;stroke-width:369.033;stroke-linecap:round;stroke-linejoin:round"
       id="path119" /></g></svg>
